<svg xmlns="http://www.w3.org/2000/svg" width="186.863" height="76.871" viewBox="0 0 186.863 76.871">
  <g id="Group_22294" data-name="Group 22294" transform="translate(-360.637 -243.496)">
    <g id="Group_22293" data-name="Group 22293" transform="translate(360.637 243.496)">
      <path id="Path_11543" data-name="Path 11543" d="M377.319,253.733v.792h-.647a4.7,4.7,0,0,1-2.214-.66,5.6,5.6,0,0,1-2.268-4.888,3.57,3.57,0,0,0-1.3-3.17,2.965,2.965,0,0,0-1.782-.726h-.271a1.006,1.006,0,0,0-.378.066,3.468,3.468,0,0,0-1.133.464c-.811.461-1.566,1.321-1.566,3.367V296.2a3.57,3.57,0,0,0,1.3,3.171,2.962,2.962,0,0,0,1.782.726h.271a1,1,0,0,0,.376-.066,5.468,5.468,0,0,0,1.136-.4c.81-.528,1.565-1.388,1.565-3.435V271.827h.647a4.115,4.115,0,0,1,3.942,2.775,8.093,8.093,0,0,1,.539,2.707v14.133c0,5.019-2.105,7.725-4.211,8.981a7.426,7.426,0,0,1-8.261,0c-2.105-1.256-4.211-3.962-4.211-8.981v-37.71c0-5.02,2.105-7.728,4.211-8.982a7.426,7.426,0,0,1,8.261,0C375.214,246.005,377.319,248.713,377.319,253.733Zm-1.026,13.8a14.878,14.878,0,0,1,1.026,5.086h-1.294v-.2a1.787,1.787,0,0,0-.054-.461,3.721,3.721,0,0,0-.326-1.388,2.8,2.8,0,0,0-2.807-1.915,4.2,4.2,0,0,1-3.941-2.774,8.094,8.094,0,0,1-.539-2.708v-.792h.647A7.581,7.581,0,0,1,376.293,267.535Z" transform="translate(-360.637 -243.496)"/>
      <path id="Path_11544" data-name="Path 11544" d="M395.919,253.733v37.71c0,5.019-2.105,7.725-4.211,8.981a8.548,8.548,0,0,1-4.1,1.255,8.68,8.68,0,0,1-4.158-1.255c-2.105-1.256-4.211-3.962-4.211-8.981v-37.71c0-5.02,2.105-7.728,4.211-8.982a8.68,8.68,0,0,1,4.158-1.255,8.549,8.549,0,0,1,4.1,1.255C393.814,246.005,395.919,248.713,395.919,253.733Zm-5.129-4.756a3.567,3.567,0,0,0-1.3-3.17,2.962,2.962,0,0,0-1.782-.726h-.271a1,1,0,0,0-.376.066,3.466,3.466,0,0,0-1.136.464c-.81.461-1.565,1.321-1.565,3.367V296.2a3.57,3.57,0,0,0,1.3,3.171,2.959,2.959,0,0,0,1.78.726h.271a1.007,1.007,0,0,0,.378-.066,5.452,5.452,0,0,0,1.133-.4c.811-.528,1.566-1.388,1.566-3.435Z" transform="translate(-354.671 -243.496)"/>
      <path id="Path_11545" data-name="Path 11545" d="M414.574,267.867v18.888c0,5.02-2.159,7.728-4.211,8.982a8.824,8.824,0,0,1-4.159,1.255v-1.585h.108c.108,0,.217-.066.379-.066a3.089,3.089,0,0,0,1.133-.462c.81-.53,1.565-1.321,1.565-3.434V263.179a3.858,3.858,0,0,0-1.24-3.237,4.348,4.348,0,0,0-1.837-.726H406.1a.763.763,0,0,1-.378.066,3.712,3.712,0,0,0-1.187.462c-.811.528-1.566,1.321-1.566,3.435v52.633h-5.13V267.867c0-4.953,2.107-7.66,4.213-8.915a7.514,7.514,0,0,1,8.314,0C412.414,260.206,414.574,262.914,414.574,267.867Z" transform="translate(-348.706 -238.941)"/>
      <path id="Path_11546" data-name="Path 11546" d="M433.093,268.034v18.822c0,5.019-2.161,7.725-4.213,8.981a7.514,7.514,0,0,1-8.314,0c-2.051-1.256-4.211-3.962-4.211-8.981V268.034c0-5.02,2.159-7.728,4.211-8.982a7.514,7.514,0,0,1,8.314,0C430.932,260.306,433.093,263.014,433.093,268.034Zm-5.131-4.756a3.712,3.712,0,0,0-1.294-3.236,3.369,3.369,0,0,0-1.836-.66h-.215a.882.882,0,0,0-.379.066,2.85,2.85,0,0,0-1.133.4,3.617,3.617,0,0,0-1.619,3.434v28.331a3.573,3.573,0,0,0,1.294,3.171,3.079,3.079,0,0,0,1.837.726h.215a.879.879,0,0,0,.378-.066,4.555,4.555,0,0,0,1.133-.4,3.62,3.62,0,0,0,1.619-3.435Z" transform="translate(-342.766 -238.909)"/>
      <path id="Path_11547" data-name="Path 11547" d="M451.167,290.649h.647v.794c0,5.019-2.158,7.725-4.212,8.981a7.514,7.514,0,0,1-8.314,0c-2.051-1.256-4.209-3.962-4.209-8.981V243.5h.647a4.2,4.2,0,0,1,3.941,2.775,8.089,8.089,0,0,1,.539,2.706V296.2a3.573,3.573,0,0,0,1.3,3.171,3.079,3.079,0,0,0,1.837.726h.217a.874.874,0,0,0,.376-.066,4.564,4.564,0,0,0,1.134-.4,3.622,3.622,0,0,0,1.619-3.435c0-2.642,1.133-4.16,2.266-4.821A4.382,4.382,0,0,1,451.167,290.649Zm.647-22.784v.792h-.7a7.668,7.668,0,0,1-7.289-5.151,15.124,15.124,0,0,1-1.026-5.085h1.3v.131a1.359,1.359,0,0,0,.054.464,6.1,6.1,0,0,0,.378,1.453,2.681,2.681,0,0,0,2.754,1.915,4.186,4.186,0,0,1,3.994,2.774A8.076,8.076,0,0,1,451.814,267.865Z" transform="translate(-336.76 -243.496)"/>
      <path id="Path_11548" data-name="Path 11548" d="M469.257,268.034c0,4.953-2.159,7.66-4.211,8.915a8.824,8.824,0,0,1-4.158,1.255v-1.585h.486a3.1,3.1,0,0,0,1.133-.462,3.619,3.619,0,0,0,1.621-3.434v-9.445a3.709,3.709,0,0,0-1.3-3.236,3.366,3.366,0,0,0-1.836-.66h-.215a.881.881,0,0,0-.379.066,2.862,2.862,0,0,0-1.135.4,3.62,3.62,0,0,0-1.619,3.434v28.331a3.574,3.574,0,0,0,1.3,3.171,3.076,3.076,0,0,0,1.836.726H461a.873.873,0,0,0,.378-.066,4.556,4.556,0,0,0,1.133-.4,3.62,3.62,0,0,0,1.621-3.435c0-2.641,1.133-4.16,2.268-4.821a4.372,4.372,0,0,1,2.212-.726h.648v.794c0,5.019-2.159,7.725-4.211,8.981a7.514,7.514,0,0,1-8.314,0c-2.054-1.256-4.158-3.962-4.158-8.981V268.034c0-5.02,2.1-7.728,4.158-8.982a7.514,7.514,0,0,1,8.314,0C467.1,260.306,469.257,263.014,469.257,268.034Z" transform="translate(-331.148 -238.909)"/>
      <path id="Path_11549" data-name="Path 11549" d="M478.929,259.382h-.108a.76.76,0,0,0-.376.066,2.439,2.439,0,0,0-1.19.4c-.81.528-1.565,1.387-1.565,3.434v33.814h-5.128V257.8h.647a3.885,3.885,0,0,1,3.186,1.519,8.274,8.274,0,0,1,4.427-1.519h.108v1.585Zm8.368,8.652v29.058h-5.183V263.278a3.853,3.853,0,0,0-1.241-3.236,3.369,3.369,0,0,0-1.836-.66h-.108V257.8a8.82,8.82,0,0,1,4.158,1.255C485.138,260.306,487.3,263.014,487.3,268.034Zm-8.368-8.652v0Z" transform="translate(-325.379 -238.909)"/>
      <path id="Path_11550" data-name="Path 11550" d="M505.536,290.649h.648v.794c0,5.019-2.159,7.725-4.213,8.981a7.513,7.513,0,0,1-8.314,0c-2.05-1.256-4.209-3.962-4.209-8.981V243.5h.647a4.2,4.2,0,0,1,3.941,2.775,8.071,8.071,0,0,1,.54,2.706V296.2a3.573,3.573,0,0,0,1.294,3.171,3.082,3.082,0,0,0,1.837.726h.217a.874.874,0,0,0,.376-.066,4.564,4.564,0,0,0,1.134-.4,3.619,3.619,0,0,0,1.619-3.435c0-2.642,1.133-4.16,2.268-4.821A4.376,4.376,0,0,1,505.536,290.649Zm.648-22.784v.792h-.7a7.668,7.668,0,0,1-7.289-5.151,15.123,15.123,0,0,1-1.026-5.085h1.3v.131a1.359,1.359,0,0,0,.054.464,6.1,6.1,0,0,0,.378,1.453,2.681,2.681,0,0,0,2.754,1.915,4.186,4.186,0,0,1,3.994,2.774A8.058,8.058,0,0,1,506.184,267.865Z" transform="translate(-319.321 -243.496)"/>
    </g>
  </g>
</svg>
