<svg xmlns="http://www.w3.org/2000/svg" width="196.8" height="70.64" viewBox="0 0 196.8 70.64">
  <path id="Path_2571" data-name="Path 2571" d="M-96.96-69.76a9.218,9.218,0,0,0-3.28-.88h-.96V-.16h7.6V-63.92A6.11,6.11,0,0,0-96.96-69.76Zm14.32.72a18.356,18.356,0,0,0-6.16-1.6v1.92h.16a7.372,7.372,0,0,1,2.72.88,4.213,4.213,0,0,1,1.84,3.92v34.24c0,2.56-1.12,3.52-2.32,4.16a5.182,5.182,0,0,1-1.68.56c-.24,0-.4.08-.56.08h-.16v1.92a15.385,15.385,0,0,0,6.16-1.52c3.04-1.52,6.24-4.8,6.24-10.88V-58.24C-76.4-64.24-79.6-67.52-82.64-69.04ZM-62-45.12a4.9,4.9,0,0,1,1.68-.48,1.562,1.562,0,0,1,.56-.08h.32a5.756,5.756,0,0,1,2.72.8,4.181,4.181,0,0,1,1.92,3.92,5.986,5.986,0,0,0,3.36,5.84,8.212,8.212,0,0,0,3.28.8h.96v-.88c0-6.08-3.2-9.36-6.24-10.88A15.385,15.385,0,0,0-59.6-47.6a15.385,15.385,0,0,0-6.16,1.52C-68.8-44.56-72-41.28-72-35.2c0,6,3.2,9.28,6.24,10.8a15.385,15.385,0,0,0,6.16,1.52h.16a7.372,7.372,0,0,1,2.72.88,4.092,4.092,0,0,1,1.92,3.92V-6.64a4.214,4.214,0,0,1-2.4,4.16A7.721,7.721,0,0,1-58.88-2a1.562,1.562,0,0,1-.56.08h-.32a5.21,5.21,0,0,1-2.72-.88A4.039,4.039,0,0,1-64.4-6.64a5.986,5.986,0,0,0-3.36-5.84,7.587,7.587,0,0,0-3.28-.88H-72v.96c0,6.08,3.2,9.36,6.24,10.88A15.385,15.385,0,0,0-59.6,0a15.385,15.385,0,0,0,6.16-1.52c3.04-1.52,6.24-4.8,6.24-10.88h0c0-6-3.2-9.28-6.24-10.8a18.356,18.356,0,0,0-6.16-1.6h-.16a5.756,5.756,0,0,1-2.72-.8,4.181,4.181,0,0,1-1.92-3.92V-40.96A4.214,4.214,0,0,1-62-45.12Zm37.76-.96A15.385,15.385,0,0,0-30.4-47.6a15.385,15.385,0,0,0-6.16,1.52c-3.04,1.52-6.24,4.8-6.24,10.88v22.8c0,6.08,3.2,9.36,6.24,10.88A15.385,15.385,0,0,0-30.4,0a15.385,15.385,0,0,0,6.16-1.52C-21.2-3.04-18-6.32-18-12.4V-35.2C-18-41.28-21.2-44.56-24.24-46.08ZM-25.6-6.64A4.214,4.214,0,0,1-28-2.48,7.721,7.721,0,0,1-29.68-2a1.562,1.562,0,0,1-.56.08h-.32a5.21,5.21,0,0,1-2.72-.88A4.039,4.039,0,0,1-35.2-6.64V-40.96a4.214,4.214,0,0,1,2.4-4.16,4.9,4.9,0,0,1,1.68-.48,1.562,1.562,0,0,1,.56-.08h.32a5.756,5.756,0,0,1,2.72.8,4.181,4.181,0,0,1,1.92,3.92Zm25.28-40h0v0Zm0,0h0v-.96H-.48a14.242,14.242,0,0,0-6.56,1.84,6.286,6.286,0,0,0-4.72-1.84h-.96v12.32h0v.96h0V0h7.6V-40.96h0A4.171,4.171,0,0,1-2.8-45.12a4.172,4.172,0,0,1,1.76-.48,1.361,1.361,0,0,1,.56-.08h.16Zm6.16.56A15.385,15.385,0,0,0-.32-47.6v.96h0v.96h.16a5.756,5.756,0,0,1,2.72.8A4.31,4.31,0,0,1,4.4-40.96a6.157,6.157,0,0,0,3.44,5.84,7.965,7.965,0,0,0,3.28.8h.96v-.88C12.08-41.28,8.88-44.56,5.84-46.08Zm15.2-7.28a6.2,6.2,0,0,0-5.76,3.28,7.672,7.672,0,0,0-.88,3.28v.08h0l1.92.08a1.971,1.971,0,0,1,.32-1.12,1.562,1.562,0,0,1,1.6-.8,3.682,3.682,0,0,0,3.36-2A4.765,4.765,0,0,0,22-52.4v-.96ZM17.76-46.8a6.24,6.24,0,0,0-3.36,5.84V0H22V-47.6h-.96A8.212,8.212,0,0,0,17.76-46.8ZM52.08-36.16a7.965,7.965,0,0,0-3.28.8,6.157,6.157,0,0,0-3.44,5.84,4.171,4.171,0,0,1-2.32,4.16,5.182,5.182,0,0,1-1.68.56h-.72a18.356,18.356,0,0,0-6.16,1.6c-3.12,1.52-6.24,4.8-6.24,10.8V0h7.6V-18.08c0-2.56,1.12-3.52,2.32-4.16a6.292,6.292,0,0,1,1.76-.56,1.361,1.361,0,0,0,.56-.08h.16A15.385,15.385,0,0,0,46.8-24.4c3.04-1.52,6.24-4.8,6.24-10.8v-.96ZM48.8-12.48a6.157,6.157,0,0,0-3.44,5.84,4.171,4.171,0,0,1-2.32,4.16A7.721,7.721,0,0,1,41.36-2a1.562,1.562,0,0,1-.56.08h-.16V0A15.385,15.385,0,0,0,46.8-1.52c3.04-1.52,6.24-4.8,6.24-10.88v-.96h-.96A7.36,7.36,0,0,0,48.8-12.48ZM34.88-40c2.56,0,3.52,1.12,4.16,2.32A5.882,5.882,0,0,1,39.6-36a4.511,4.511,0,0,0,.08.56v.24H41.6a15.132,15.132,0,0,0-1.52-6.16c-1.52-3.12-4.8-6.24-10.88-6.24h-.96v.96a8.212,8.212,0,0,0,.8,3.28A6.24,6.24,0,0,0,34.88-40ZM63.6-53.36a6.2,6.2,0,0,0-5.76,3.28,7.672,7.672,0,0,0-.88,3.28v.08h0l1.92.08a1.971,1.971,0,0,1,.32-1.12,1.562,1.562,0,0,1,1.6-.8,3.682,3.682,0,0,0,3.36-2,4.765,4.765,0,0,0,.4-1.84v-.96ZM60.32-46.8a6.24,6.24,0,0,0-3.36,5.84V0h7.6V-47.6H63.6A8.212,8.212,0,0,0,60.32-46.8Zm22.88.16h0v0Zm0,0h0v-.96h-.16a14.242,14.242,0,0,0-6.56,1.84,6.286,6.286,0,0,0-4.72-1.84H70.8v12.32h0v.96h0V0h7.6V-40.96h0a4.171,4.171,0,0,1,2.32-4.16,4.172,4.172,0,0,1,1.76-.48,1.361,1.361,0,0,1,.56-.08h.16Zm6.16.56A15.385,15.385,0,0,0,83.2-47.6v.96h0v.96h.16a5.756,5.756,0,0,1,2.72.8,4.31,4.31,0,0,1,1.84,3.92V0H95.6V-35.2C95.6-41.28,92.4-44.56,89.36-46.08Z" transform="translate(101.2 70.64)" fill="#70607d"/>
</svg>
